<?xml version="1.0" encoding="UTF-8" standalone="no"?>
<!DOCTYPE svg PUBLIC "-//W3C//DTD SVG 1.1//EN" "http://www.w3.org/Graphics/SVG/1.1/DTD/svg11.dtd">
<svg xmlns="http://www.w3.org/2000/svg" version="1.1" viewBox="0.00 0.00 1423.00 900.00">
<g stroke-width="2.00" fill="none" stroke-linecap="butt">
<path stroke="none" vector-effect="non-scaling-stroke" d="
  M 596.72 812.30
  L 565.25 812.27
  Q 564.38 812.27 564.52 811.42
  C 569.98 777.78 546.16 745.66 511.81 743.83
  Q 493.54 742.86 478.12 753.19
  A 0.43 0.42 -26.4 0 1 477.48 752.98
  Q 470.79 734.18 455.98 719.55
  Q 432.60 696.43 399.72 693.56
  A 0.67 0.66 -83.5 0 1 399.12 692.80
  C 404.57 655.64 430.89 619.57 464.94 603.63
  Q 471.99 600.32 479.85 597.47
  Q 485.52 595.41 485.26 589.62
  Q 485.06 585.30 481.36 583.92
  C 479.33 583.16 476.78 583.95 474.76 584.53
  Q 458.68 589.18 444.95 598.40
  Q 400.48 628.28 386.79 680.39
  Q 385.23 686.34 384.42 692.72
  Q 384.33 693.40 383.64 693.42
  C 352.22 694.10 324.67 713.06 309.32 740.06
  Q 309.03 740.57 308.56 740.21
  C 291.56 727.16 269.62 723.79 249.64 731.40
  C 217.83 743.52 202.01 779.35 209.67 811.64
  A 0.49 0.49 0.0 0 1 209.19 812.25
  Q 157.69 812.30 107.59 812.28
  C 97.88 812.28 97.71 826.70 107.80 826.70
  Q 353.95 826.74 597.91 826.67
  Q 598.55 826.67 598.83 827.25
  Q 605.35 841.01 615.63 853.80
  C 618.36 857.20 622.99 857.62 626.51 855.18
  Q 628.93 853.51 630.71 851.37
  Q 637.80 842.90 644.45 833.78
  Q 645.45 832.41 645.45 834.10
  Q 645.45 840.83 645.56 846.76
  C 645.86 862.94 656.08 876.90 667.17 887.93
  C 672.05 892.80 677.75 894.39 683.53 889.11
  Q 693.68 879.84 700.58 868.17
  C 706.70 857.82 706.95 847.39 706.53 835.76
  Q 706.49 834.65 707.13 835.55
  Q 712.91 843.65 720.47 852.65
  C 725.08 858.13 730.54 857.90 735.13 852.51
  Q 746.06 839.66 752.29 827.10
  A 0.97 0.96 -76.4 0 1 753.15 826.57
  Q 848.95 826.85 932.25 826.78
  Q 963.50 826.75 994.75 826.73
  Q 1156.77 826.62 1321.75 826.69
  Q 1329.59 826.70 1330.47 820.41
  C 1331.12 815.76 1327.77 812.25 1323.15 812.25
  Q 1268.90 812.25 1212.01 812.27
  Q 1210.99 812.27 1211.20 811.28
  C 1214.76 794.50 1212.42 779.47 1205.81 764.13
  A 3.50 3.50 0.0 0 1 1205.63 761.89
  C 1214.59 726.70 1205.51 688.56 1184.11 659.90
  Q 1169.37 640.15 1145.18 626.52
  Q 1144.69 626.24 1144.69 625.68
  C 1145.29 589.48 1127.62 553.08 1099.18 530.85
  Q 1067.14 505.81 1025.07 507.95
  A 1.44 1.44 0.0 0 1 1023.67 507.07
  C 1021.15 501.01 1018.64 494.83 1015.35 489.22
  C 997.20 458.31 968.10 435.49 933.18 426.88
  C 892.27 416.79 848.87 423.60 815.08 448.68
  Q 814.17 449.35 813.35 448.57
  Q 801.44 437.11 788.78 429.45
  A 1.31 1.30 -74.6 0 1 788.15 428.33
  Q 788.47 391.93 788.11 359.46
  C 787.45 301.05 780.13 241.89 763.25 186.57
  Q 757.60 168.08 752.47 154.36
  Q 737.63 114.72 714.41 76.40
  C 705.31 61.40 694.66 47.46 683.09 34.33
  C 679.64 30.42 674.24 29.92 670.61 33.83
  Q 655.29 50.37 643.09 69.27
  Q 610.04 120.51 592.19 177.69
  Q 589.22 187.18 586.41 196.79
  Q 580.20 218.01 574.82 249.70
  Q 565.69 303.44 565.60 356.21
  Q 565.50 416.09 565.55 428.18
  Q 565.55 428.85 564.99 429.22
  C 547.93 440.45 533.25 454.10 521.29 470.89
  C 504.10 495.04 492.43 525.60 490.60 555.92
  Q 487.54 606.56 513.71 649.51
  Q 517.48 655.70 521.45 662.17
  C 523.95 666.24 527.62 668.51 531.98 665.87
  C 534.09 664.59 535.38 661.83 536.63 659.68
  C 543.27 648.22 553.67 637.90 564.76 629.84
  A 0.44 0.44 0.0 0 1 565.46 630.19
  Q 565.53 638.17 565.60 646.51
  C 565.65 652.34 567.15 657.43 572.71 659.85
  Q 575.89 661.23 582.89 661.06
  Q 590.03 660.89 596.98 660.99
  Q 597.53 661.00 597.53 661.55
  L 597.50 811.53
  Q 597.50 812.30 596.72 812.30"
/>
<path stroke="none" vector-effect="non-scaling-stroke" d="
  M 125.06 113.29
  C 131.81 116.68 133.07 125.66 133.50 132.66
  Q 133.70 136.05 137.09 136.24
  Q 137.54 136.27 137.97 136.14
  Q 140.45 135.38 140.62 132.78
  C 141.25 122.70 142.90 114.12 154.20 111.62
  Q 158.90 110.58 163.74 110.34
  Q 166.95 110.19 167.56 107.03
  Q 167.65 106.59 167.56 106.16
  Q 167.06 103.53 164.38 103.33
  Q 160.55 103.04 155.96 102.36
  C 143.24 100.49 141.27 91.13 140.03 80.31
  C 139.46 75.33 133.54 76.03 133.29 79.86
  Q 132.95 84.96 131.50 90.40
  C 128.58 101.36 119.94 102.38 110.27 103.14
  C 105.35 103.52 105.64 110.45 110.97 110.49
  C 115.83 110.52 120.84 111.17 125.06 113.29"
/>
<path stroke="none" vector-effect="non-scaling-stroke" d="
  M 1095.45 242.55
  Q 1095.49 243.21 1094.86 243.00
  C 1079.34 237.75 1062.97 241.84 1053.49 255.09
  C 1047.54 263.43 1046.04 271.95 1046.93 281.91
  Q 1046.99 282.52 1046.37 282.53
  Q 1038.46 282.57 1030.45 282.44
  C 1020.42 282.29 1019.73 296.84 1030.00 296.88
  C 1101.49 297.16 1212.65 297.15 1344.45 296.85
  C 1348.66 296.84 1352.17 295.66 1352.79 291.05
  C 1353.85 283.06 1347.64 282.14 1341.37 282.32
  Q 1334.13 282.52 1326.12 282.30
  Q 1325.49 282.29 1325.64 281.67
  Q 1331.36 258.28 1320.51 237.02
  C 1312.12 220.55 1296.30 208.76 1278.32 205.30
  Q 1264.96 202.72 1253.01 206.55
  A 0.58 0.57 -17.9 0 1 1252.30 206.19
  Q 1244.45 182.97 1224.01 168.32
  C 1206.74 155.94 1186.22 151.56 1164.86 154.63
  C 1122.60 160.69 1092.32 200.24 1095.45 242.55"
/>
<path stroke="none" vector-effect="non-scaling-stroke" d="
  M 954.7954 223.8030
  A 6.98 6.98 0.0 0 0 954.4854 213.9367
  L 954.3104 213.7724
  A 6.98 6.98 0.0 0 0 944.4441 214.0824
  L 902.6046 258.6370
  A 6.98 6.98 0.0 0 0 902.9146 268.5033
  L 903.0896 268.6676
  A 6.98 6.98 0.0 0 0 912.9559 268.3576
  L 954.7954 223.8030"
/>
<path stroke="none" vector-effect="non-scaling-stroke" d="
  M 453.2758 232.0581
  A 6.98 6.98 0.0 0 0 452.9657 222.1918
  L 452.7179 221.9590
  A 6.98 6.98 0.0 0 0 442.8515 222.2691
  L 419.3442 247.3019
  A 6.98 6.98 0.0 0 0 419.6543 257.1682
  L 419.9021 257.4010
  A 6.98 6.98 0.0 0 0 429.7685 257.0909
  L 453.2758 232.0581"
/>
<path stroke="none" vector-effect="non-scaling-stroke" d="
  M 1166.95 388.78
  Q 1174.80 366.89 1163.97 347.50
  C 1148.86 320.44 1113.43 315.81 1090.52 335.36
  A 0.72 0.71 44.6 0 1 1089.59 335.36
  Q 1076.43 324.36 1061.13 323.06
  C 1031.17 320.53 1007.49 343.83 1009.03 373.75
  Q 1009.43 381.52 1012.80 389.12
  A 0.43 0.43 0.0 0 1 1012.39 389.72
  Q 1002.07 389.40 992.67 389.57
  Q 988.25 389.64 986.26 393.57
  C 984.39 397.29 986.04 402.29 990.24 403.45
  Q 992.35 404.04 994.72 404.03
  Q 1089.19 403.97 1188.95 404.02
  Q 1191.89 404.02 1194.14 402.66
  C 1197.83 400.44 1198.54 395.39 1195.80 392.11
  Q 1193.64 389.52 1189.78 389.51
  Q 1178.75 389.51 1167.48 389.52
  Q 1166.69 389.52 1166.95 388.78"
/>
<path stroke="none" vector-effect="non-scaling-stroke" d="
  M 315.68 407.74
  Q 337.38 419.10 342.06 444.77
  Q 342.30 446.10 343.58 446.52
  C 346.51 447.49 347.45 445.93 347.84 443.36
  C 350.52 425.91 361.71 412.70 377.75 405.91
  Q 383.25 403.58 388.84 402.80
  C 391.70 402.41 392.92 398.76 390.56 397.16
  Q 389.80 396.64 387.75 396.41
  C 366.59 394.01 350.67 376.94 347.13 356.38
  C 346.70 353.91 343.41 352.94 341.90 354.90
  Q 341.42 355.53 341.18 357.30
  C 338.38 378.12 321.07 394.22 300.62 396.86
  C 296.55 397.38 296.38 402.71 300.63 403.18
  Q 308.66 404.07 315.68 407.74"
/>
<path stroke="none" vector-effect="non-scaling-stroke" d="
  M 48.62 509.58
  Q 38.71 509.68 29.13 509.47
  Q 24.77 509.38 22.49 510.50
  C 17.35 513.01 17.37 521.36 22.77 523.56
  Q 24.24 524.17 27.10 524.17
  Q 125.99 524.38 222.87 524.18
  Q 226.87 524.18 229.26 521.57
  C 232.16 518.39 231.48 513.31 227.82 510.89
  Q 225.97 509.67 222.90 509.67
  Q 211.77 509.66 202.01 509.67
  Q 201.01 509.67 201.32 508.71
  Q 208.41 486.87 197.63 468.20
  C 192.33 459.00 183.45 451.46 173.61 447.72
  C 156.78 441.33 139.54 444.31 125.65 456.28
  Q 125.20 456.67 124.75 456.29
  C 122.79 454.67 120.92 453.01 118.76 451.64
  C 104.35 442.47 86.39 442.10 71.31 450.40
  C 53.21 460.37 43.29 480.63 47.14 501.35
  C 47.60 503.85 48.51 506.34 49.20 508.81
  Q 49.41 509.57 48.62 509.58"
/>
<path stroke="none" vector-effect="non-scaling-stroke" d="
  M 1261.42 518.86
  Q 1283.37 528.72 1288.85 551.27
  C 1289.33 553.22 1289.37 555.23 1289.81 557.17
  Q 1289.96 557.83 1290.56 558.14
  C 1292.56 559.15 1295.25 558.66 1295.53 556.02
  C 1297.84 534.44 1316.36 518.24 1337.57 515.03
  Q 1339.26 514.78 1339.66 513.10
  C 1340.88 508.02 1334.24 508.90 1331.35 508.12
  C 1313.47 503.32 1297.86 488.43 1295.72 469.31
  C 1295.30 465.48 1289.93 464.96 1289.49 469.00
  Q 1288.02 482.26 1277.99 493.26
  Q 1266.02 506.40 1247.96 508.80
  C 1244.15 509.31 1244.16 514.97 1248.30 515.37
  Q 1255.15 516.04 1261.42 518.86"
/>
<path stroke="none" vector-effect="non-scaling-stroke" d="
  M 328.1474 557.7921
  A 7.14 7.14 0.0 0 0 327.8831 547.6981
  L 327.7670 547.5880
  A 7.14 7.14 0.0 0 0 317.6730 547.8523
  L 244.8726 624.5679
  A 7.14 7.14 0.0 0 0 245.1369 634.6619
  L 245.2530 634.7720
  A 7.14 7.14 0.0 0 0 255.3470 634.5077
  L 328.1474 557.7921"
/>
<path stroke="none" vector-effect="non-scaling-stroke" d="
  M 1404.20 674.66
  A 6.98 6.98 0.0 0 0 1397.22 667.68
  L 1306.74 667.68
  A 6.98 6.98 0.0 0 0 1299.76 674.66
  L 1299.76 675.14
  A 6.98 6.98 0.0 0 0 1306.74 682.12
  L 1397.22 682.12
  A 6.98 6.98 0.0 0 0 1404.20 675.14
  L 1404.20 674.66"
/>
<path stroke="none" vector-effect="non-scaling-stroke" d="
  M 118.2197 674.7348
  A 7.12 7.12 0.0 0 0 111.0873 667.6272
  L 16.1874 667.7928
  A 7.12 7.12 0.0 0 0 9.0799 674.9252
  L 9.0803 675.1652
  A 7.12 7.12 0.0 0 0 16.2127 682.2728
  L 111.1126 682.1072
  A 7.12 7.12 0.0 0 0 118.2201 674.9748
  L 118.2197 674.7348"
/>
<path stroke="none" vector-effect="non-scaling-stroke" d="
  M 75.2996 722.5122
  A 7.00 7.00 0.0 0 0 68.2874 715.5244
  L 16.0275 715.6156
  A 7.00 7.00 0.0 0 0 9.0397 722.6278
  L 9.0404 723.0078
  A 7.00 7.00 0.0 0 0 16.0526 729.9956
  L 68.3125 729.9044
  A 7.00 7.00 0.0 0 0 75.3003 722.8922
  L 75.2996 722.5122"
/>
<path stroke="none" vector-effect="non-scaling-stroke" d="
  M 1401.8804 722.4619
  A 6.91 6.91 0.0 0 0 1394.9825 715.5398
  L 1337.9026 715.4402
  A 6.91 6.91 0.0 0 0 1330.9805 722.3381
  L 1330.9796 722.8781
  A 6.91 6.91 0.0 0 0 1337.8775 729.8002
  L 1394.9574 729.8998
  A 6.91 6.91 0.0 0 0 1401.8795 723.0019
  L 1401.8804 722.4619"
/>
<path stroke="none" vector-effect="non-scaling-stroke" d="
  M 1404.2596 767.8966
  A 7.02 7.02 0.0 0 0 1397.2274 760.8889
  L 1315.7275 761.0311
  A 7.02 7.02 0.0 0 0 1308.7198 768.0634
  L 1308.7204 768.4034
  A 7.02 7.02 0.0 0 0 1315.7526 775.4111
  L 1397.2525 775.2689
  A 7.02 7.02 0.0 0 0 1404.2602 768.2366
  L 1404.2596 767.8966"
/>
<path stroke="none" vector-effect="non-scaling-stroke" d="
  M 651.20 83.73
  C 626.05 124.25 608.06 168.29 596.97 214.44
  Q 587.94 252.04 584.32 288.02
  Q 580.36 327.26 580.33 370.13
  Q 580.22 506.61 580.35 645.69
  A 0.92 0.91 -90.0 0 0 581.26 646.61
  L 773.00 646.50
  Q 773.45 646.50 773.45 645.98
  Q 773.54 508.80 773.39 371.83
  Q 773.34 328.26 769.37 291.29
  C 764.24 243.43 753.15 196.15 735.35 150.97
  Q 716.67 103.54 686.76 61.50
  C 683.83 57.39 680.44 53.51 677.17 49.58
  A 0.70 0.70 0.0 0 0 676.21 49.47
  Q 675.91 49.69 675.67 49.98
  Q 661.95 66.41 651.20 83.73"
/>
<path stroke="none" vector-effect="non-scaling-stroke" d="
  M 1019.25 522.68
  C 1013.17 522.92 1011.80 518.16 1010.38 513.32
  Q 1008.62 507.31 1005.46 501.22
  Q 989.34 470.19 958.96 452.60
  C 945.42 444.76 929.79 440.11 914.60 437.96
  Q 882.14 433.37 851.11 445.11
  C 841.87 448.61 832.76 454.03 824.56 459.84
  A 0.79 0.79 0.0 0 0 824.43 461.02
  Q 830.03 467.09 834.62 474.05
  C 857.30 508.47 867.48 550.26 861.17 591.39
  Q 861.08 591.97 861.48 591.54
  Q 862.81 590.09 864.47 588.93
  C 877.65 579.72 891.81 572.79 907.35 569.36
  Q 937.35 562.73 966.41 569.82
  C 1007.96 579.96 1043.01 611.76 1052.43 654.05
  C 1054.61 663.85 1040.64 666.50 1038.68 657.94
  C 1030.30 621.43 1001.26 594.15 965.55 584.49
  C 934.10 575.98 898.41 581.15 872.22 601.05
  C 869.63 603.02 866.83 603.58 863.75 602.28
  C 861.77 601.44 861.09 599.51 860.67 597.58
  Q 860.25 595.66 859.88 597.59
  C 858.50 604.74 857.00 611.70 854.54 618.59
  Q 848.52 635.42 838.99 650.60
  Q 835.00 656.98 830.42 663.62
  C 827.66 667.61 821.67 667.88 819.23 663.44
  Q 811.46 649.31 801.01 639.50
  C 797.25 635.98 793.10 633.24 789.18 629.98
  A 0.41 0.41 0.0 0 0 788.51 630.28
  Q 788.19 639.30 788.38 647.78
  C 788.50 652.82 786.57 656.79 782.25 659.29
  Q 779.36 660.95 773.25 660.97
  Q 763.92 660.99 755.21 661.05
  A 0.62 0.62 0.0 0 0 754.59 661.67
  L 754.69 811.60
  A 0.67 0.66 90.0 0 0 755.35 812.27
  L 900.80 812.28
  A 0.39 0.39 0.0 0 0 901.18 811.82
  C 898.03 796.78 898.68 780.33 903.08 765.77
  C 916.94 719.87 956.29 684.77 1005.67 684.80
  C 1040.69 684.82 1071.31 700.67 1090.63 729.86
  Q 1090.93 730.31 1091.38 730.01
  C 1124.56 708.06 1166.90 714.13 1193.58 744.12
  Q 1194.40 745.04 1194.46 743.81
  Q 1197.25 689.03 1158.34 653.33
  Q 1147.55 643.42 1133.64 637.66
  C 1130.97 636.56 1129.38 634.18 1129.64 631.21
  C 1134.72 573.53 1087.43 519.62 1028.58 522.28
  Q 1023.90 522.49 1019.25 522.68"
/>
<path stroke="none" vector-effect="non-scaling-stroke" d="
  M 845.22 535.92
  C 837.78 500.14 817.78 468.94 788.55 446.65
  A 0.21 0.20 18.8 0 0 788.22 446.81
  L 788.26 611.79
  A 2.09 2.08 13.5 0 0 789.41 613.65
  C 803.40 620.70 815.34 631.33 824.46 644.23
  A 0.71 0.71 0.0 0 0 825.63 644.21
  Q 835.33 629.53 841.24 611.88
  Q 853.45 575.44 845.22 535.92"
/>
<path stroke="none" vector-effect="non-scaling-stroke" d="
  M 519.17 503.49
  Q 500.72 542.89 505.88 583.95
  Q 509.99 616.65 528.13 644.79
  Q 528.85 645.91 529.54 644.77
  Q 532.10 640.55 535.67 636.45
  Q 548.28 622.00 565.11 613.69
  A 0.80 0.79 -13.3 0 0 565.55 612.98
  L 565.51 447.49
  Q 565.51 446.53 564.76 447.13
  C 556.82 453.50 549.14 459.99 542.34 467.66
  Q 528.76 482.99 519.17 503.49"
/>
<path stroke="none" vector-effect="non-scaling-stroke" d="
  M 687.98 861.22
  C 691.28 856.03 692.03 851.40 692.04 845.31
  Q 692.06 754.26 691.95 662.00
  A 1.24 1.24 0.0 0 0 690.70 660.76
  L 660.83 660.87
  Q 660.55 660.87 660.55 661.15
  Q 660.17 754.39 660.52 846.93
  C 660.57 858.02 667.96 866.76 675.06 875.02
  Q 675.92 876.03 676.86 875.09
  Q 683.11 868.87 687.98 861.22"
/>
<path stroke="none" vector-effect="non-scaling-stroke" d="
  M 737.57 824.68
  C 740.32 819.76 740.17 814.34 740.16 808.94
  Q 739.99 736.43 740.03 661.64
  A 0.79 0.78 0.4 0 0 739.24 660.85
  L 706.88 660.82
  Q 706.53 660.82 706.53 661.18
  L 706.51 809.65
  A 4.00 3.99 26.5 0 0 707.32 812.06
  L 727.00 837.93
  A 0.70 0.70 0.0 0 0 728.08 837.97
  Q 733.83 831.35 737.57 824.68"
/>
<path stroke="none" vector-effect="non-scaling-stroke" d="
  M 614.57 826.70
  Q 618.19 833.02 621.89 838.07
  A 0.64 0.64 0.0 0 0 622.91 838.09
  L 645.07 810.36
  A 1.86 1.84 -25.8 0 0 645.48 809.20
  L 645.41 661.41
  A 0.51 0.50 90.0 0 0 644.91 660.90
  L 612.99 660.98
  A 0.71 0.71 0.0 0 0 612.28 661.69
  Q 612.32 738.60 612.28 809.92
  C 612.28 815.40 611.74 821.75 614.57 826.70"
/>
<path stroke="none" vector-effect="non-scaling-stroke" d="
  M 1194.14 773.03
  C 1185.20 751.03 1165.74 734.12 1141.80 731.71
  Q 1113.26 728.83 1092.28 746.90
  C 1088.13 750.46 1084.62 750.28 1082.28 745.03
  C 1072.31 722.69 1050.88 707.78 1027.49 701.66
  Q 1018.59 699.33 1006.83 699.17
  C 975.36 698.73 948.11 714.93 930.55 740.75
  C 916.22 761.82 910.27 786.93 915.70 811.62
  Q 915.84 812.25 916.48 812.25
  L 1195.46 812.34
  Q 1196.23 812.34 1196.40 811.60
  Q 1201.33 790.72 1194.14 773.03"
/>
<path stroke="none" vector-effect="non-scaling-stroke" d="
  M 243.44 751.05
  C 224.56 765.31 217.75 789.27 224.64 811.66
  Q 224.83 812.28 225.48 812.28
  L 549.31 812.27
  Q 550.00 812.27 550.10 811.59
  C 551.94 799.57 550.88 788.51 544.18 777.95
  C 534.58 762.82 516.23 754.28 498.59 759.37
  Q 483.91 763.60 476.69 776.46
  C 475.37 778.81 472.93 779.77 470.38 778.54
  Q 468.69 777.72 468.39 775.86
  Q 467.14 768.06 464.63 759.90
  C 456.76 734.29 434.56 715.48 408.81 709.47
  C 379.45 702.62 350.16 711.59 330.58 734.56
  Q 321.30 745.45 317.29 760.29
  Q 316.72 762.38 315.48 763.46
  C 313.44 765.23 310.16 764.29 308.76 762.00
  C 295.04 739.47 263.94 735.57 243.44 751.05"
/>
<path stroke="none" vector-effect="non-scaling-stroke" d="
  M 708.6521 194.7512
  A 31.33 30.94 -9.7 0 0 672.5569 169.5323
  A 31.33 30.94 -9.7 0 0 646.8879 205.3088
  A 31.33 30.94 -9.7 0 0 682.9831 230.5277
  A 31.33 30.94 -9.7 0 0 708.6521 194.7512"
/>
<path stroke="none" vector-effect="non-scaling-stroke" d="
  M 726.7863 295.4716
  A 49.56 49.06 -5.8 0 0 672.5222 251.6712
  A 49.56 49.06 -5.8 0 0 628.1737 305.4884
  A 49.56 49.06 -5.8 0 0 682.4378 349.2888
  A 49.56 49.06 -5.8 0 0 726.7863 295.4716"
/>
<path stroke="none" vector-effect="non-scaling-stroke" d="
  M 661.2093 587.6530
  A 4.86 4.86 0.0 0 0 656.3324 582.8100
  L 633.3925 582.8901
  A 4.86 4.86 0.0 0 0 628.5495 587.7670
  L 628.5507 588.1070
  A 4.86 4.86 0.0 0 0 633.4276 592.9500
  L 656.3675 592.8699
  A 4.86 4.86 0.0 0 0 661.2105 587.9930
  L 661.2093 587.6530"
/>
<path stroke="none" vector-effect="non-scaling-stroke" d="
  M 727.2003 587.8773
  A 4.90 4.90 0.0 0 0 722.3088 582.9688
  L 700.7889 582.9312
  A 4.90 4.90 0.0 0 0 695.8803 587.8227
  L 695.8797 588.1827
  A 4.90 4.90 0.0 0 0 700.7712 593.0912
  L 722.2911 593.1288
  A 4.90 4.90 0.0 0 0 727.1997 588.2373
  L 727.2003 587.8773"
/>
<path stroke="none" vector-effect="non-scaling-stroke" d="
  M 137.02 102.03
  A 0.32 0.32 0.0 0 0 136.53 102.04
  L 132.83 106.58
  A 0.32 0.32 0.0 0 0 132.84 106.99
  L 136.50 111.06
  A 0.32 0.32 0.0 0 0 136.92 111.10
  L 141.64 107.76
  A 0.32 0.32 0.0 0 0 141.69 107.28
  L 137.02 102.03"
/>
<path stroke="none" vector-effect="non-scaling-stroke" d="
  M 1305.81 240.31
  C 1293.47 220.90 1268.93 212.22 1248.77 224.53
  C 1245.40 226.58 1241.85 225.29 1241.27 221.28
  Q 1237.88 197.96 1218.96 182.39
  C 1202.25 168.64 1179.53 164.75 1158.99 170.67
  C 1119.22 182.14 1098.40 226.84 1115.91 264.73
  Q 1119.65 272.82 1128.28 281.67
  C 1129.05 282.46 1130.00 282.45 1131.01 282.45
  Q 1216.98 282.55 1305.44 282.47
  Q 1307.83 282.47 1310.24 282.08
  Q 1310.77 282.00 1310.92 281.49
  Q 1317.50 258.71 1305.81 240.31"
/>
<path stroke="none" vector-effect="non-scaling-stroke" d="
  M 1108.86 281.79
  C 1103.65 274.40 1099.61 265.45 1097.06 256.57
  C 1096.80 255.68 1096.23 254.97 1095.38 254.58
  C 1080.83 247.93 1064.74 253.42 1058.66 268.62
  C 1056.99 272.81 1057.06 277.56 1057.26 281.97
  Q 1057.28 282.49 1057.81 282.49
  L 1108.51 282.47
  A 0.43 0.43 0.0 0 0 1108.86 281.79"
/>
<path stroke="none" vector-effect="non-scaling-stroke" d="
  M 694.2655 199.2874
  A 16.54 16.23 -2.4 0 0 677.0604 183.7642
  A 16.54 16.23 -2.4 0 0 661.2145 200.6726
  A 16.54 16.23 -2.4 0 0 678.4196 216.1958
  A 16.54 16.23 -2.4 0 0 694.2655 199.2874"
/>
<path stroke="none" vector-effect="non-scaling-stroke" d="
  M 712.3656 302.3687
  A 34.91 34.41 3.2 0 0 679.4308 266.0637
  A 34.91 34.41 3.2 0 0 642.6544 298.4713
  A 34.91 34.41 3.2 0 0 675.5892 334.7763
  A 34.91 34.41 3.2 0 0 712.3656 302.3687"
/>
<path stroke="none" vector-effect="non-scaling-stroke" d="
  M 1094.15 352.47
  C 1091.66 355.87 1087.39 355.29 1084.98 351.98
  C 1071.98 334.17 1046.99 331.76 1031.80 347.84
  C 1020.97 359.30 1020.52 375.95 1029.16 388.84
  Q 1029.40 389.20 1029.82 389.28
  Q 1031.94 389.69 1034.24 389.69
  Q 1092.18 389.74 1150.38 389.66
  A 0.67 0.67 0.0 0 0 1150.97 389.31
  Q 1158.12 376.53 1154.96 363.43
  Q 1152.62 353.71 1145.25 346.75
  C 1129.95 332.29 1106.44 335.60 1094.15 352.47"
/>
<path stroke="none" vector-effect="non-scaling-stroke" d="
  M 344.03 380.17
  Q 336.81 392.68 324.76 400.18
  A 0.39 0.39 0.0 0 0 324.77 400.85
  Q 336.83 407.85 344.11 420.00
  A 0.46 0.45 45.4 0 0 344.89 420.01
  Q 350.95 410.17 360.44 402.93
  Q 362.29 401.52 364.45 400.58
  A 0.42 0.42 0.0 0 0 364.49 399.83
  Q 352.21 392.60 344.81 380.17
  A 0.45 0.45 0.0 0 0 344.03 380.17"
/>
<path stroke="none" vector-effect="non-scaling-stroke" d="
  M 121.69 476.02
  C 120.13 473.93 118.97 471.57 117.24 469.56
  C 101.87 451.66 74.93 456.90 64.43 476.85
  C 59.88 485.49 59.56 494.82 63.08 504.03
  Q 64.10 506.67 65.26 509.32
  A 0.80 0.79 78.1 0 0 65.99 509.80
  L 184.19 509.79
  A 0.92 0.91 14.4 0 0 184.99 509.32
  Q 191.08 498.56 189.37 487.45
  C 187.47 475.08 179.02 464.49 167.19 460.54
  C 153.25 455.89 139.71 460.62 130.92 472.48
  Q 129.60 474.26 128.17 476.11
  C 126.62 478.11 123.18 478.02 121.69 476.02"
/>
<path stroke="none" vector-effect="non-scaling-stroke" d="
  M 1310.17 513.99
  C 1310.84 513.56 1311.67 513.19 1312.43 512.86
  Q 1313.27 512.48 1312.49 512.00
  Q 1300.62 504.66 1292.98 492.68
  Q 1292.60 492.08 1292.19 492.67
  C 1291.21 494.09 1290.43 495.58 1289.34 496.94
  Q 1282.09 506.06 1272.78 511.85
  A 0.35 0.35 0.0 0 0 1272.80 512.45
  Q 1284.97 519.03 1292.64 531.27
  Q 1292.86 531.61 1293.08 531.27
  Q 1299.72 520.63 1310.17 513.99"
/>
</g>
<path fill="none" d="
  M 0.00 0.00
  L 1423.00 0.00
  L 1423.00 900.00
  L 0.00 900.00
  L 0.00 0.00
  Z
  M 596.72 812.30
  L 565.25 812.27
  Q 564.38 812.27 564.52 811.42
  C 569.98 777.78 546.16 745.66 511.81 743.83
  Q 493.54 742.86 478.12 753.19
  A 0.43 0.42 -26.4 0 1 477.48 752.98
  Q 470.79 734.18 455.98 719.55
  Q 432.60 696.43 399.72 693.56
  A 0.67 0.66 -83.5 0 1 399.12 692.80
  C 404.57 655.64 430.89 619.57 464.94 603.63
  Q 471.99 600.32 479.85 597.47
  Q 485.52 595.41 485.26 589.62
  Q 485.06 585.30 481.36 583.92
  C 479.33 583.16 476.78 583.95 474.76 584.53
  Q 458.68 589.18 444.95 598.40
  Q 400.48 628.28 386.79 680.39
  Q 385.23 686.34 384.42 692.72
  Q 384.33 693.40 383.64 693.42
  C 352.22 694.10 324.67 713.06 309.32 740.06
  Q 309.03 740.57 308.56 740.21
  C 291.56 727.16 269.62 723.79 249.64 731.40
  C 217.83 743.52 202.01 779.35 209.67 811.64
  A 0.49 0.49 0.0 0 1 209.19 812.25
  Q 157.69 812.30 107.59 812.28
  C 97.88 812.28 97.71 826.70 107.80 826.70
  Q 353.95 826.74 597.91 826.67
  Q 598.55 826.67 598.83 827.25
  Q 605.35 841.01 615.63 853.80
  C 618.36 857.20 622.99 857.62 626.51 855.18
  Q 628.93 853.51 630.71 851.37
  Q 637.80 842.90 644.45 833.78
  Q 645.45 832.41 645.45 834.10
  Q 645.45 840.83 645.56 846.76
  C 645.86 862.94 656.08 876.90 667.17 887.93
  C 672.05 892.80 677.75 894.39 683.53 889.11
  Q 693.68 879.84 700.58 868.17
  C 706.70 857.82 706.95 847.39 706.53 835.76
  Q 706.49 834.65 707.13 835.55
  Q 712.91 843.65 720.47 852.65
  C 725.08 858.13 730.54 857.90 735.13 852.51
  Q 746.06 839.66 752.29 827.10
  A 0.97 0.96 -76.4 0 1 753.15 826.57
  Q 848.95 826.85 932.25 826.78
  Q 963.50 826.75 994.75 826.73
  Q 1156.77 826.62 1321.75 826.69
  Q 1329.59 826.70 1330.47 820.41
  C 1331.12 815.76 1327.77 812.25 1323.15 812.25
  Q 1268.90 812.25 1212.01 812.27
  Q 1210.99 812.27 1211.20 811.28
  C 1214.76 794.50 1212.42 779.47 1205.81 764.13
  A 3.50 3.50 0.0 0 1 1205.63 761.89
  C 1214.59 726.70 1205.51 688.56 1184.11 659.90
  Q 1169.37 640.15 1145.18 626.52
  Q 1144.69 626.24 1144.69 625.68
  C 1145.29 589.48 1127.62 553.08 1099.18 530.85
  Q 1067.14 505.81 1025.07 507.95
  A 1.44 1.44 0.0 0 1 1023.67 507.07
  C 1021.15 501.01 1018.64 494.83 1015.35 489.22
  C 997.20 458.31 968.10 435.49 933.18 426.88
  C 892.27 416.79 848.87 423.60 815.08 448.68
  Q 814.17 449.35 813.35 448.57
  Q 801.44 437.11 788.78 429.45
  A 1.31 1.30 -74.6 0 1 788.15 428.33
  Q 788.47 391.93 788.11 359.46
  C 787.45 301.05 780.13 241.89 763.25 186.57
  Q 757.60 168.08 752.47 154.36
  Q 737.63 114.72 714.41 76.40
  C 705.31 61.40 694.66 47.46 683.09 34.33
  C 679.64 30.42 674.24 29.92 670.61 33.83
  Q 655.29 50.37 643.09 69.27
  Q 610.04 120.51 592.19 177.69
  Q 589.22 187.18 586.41 196.79
  Q 580.20 218.01 574.82 249.70
  Q 565.69 303.44 565.60 356.21
  Q 565.50 416.09 565.55 428.18
  Q 565.55 428.85 564.99 429.22
  C 547.93 440.45 533.25 454.10 521.29 470.89
  C 504.10 495.04 492.43 525.60 490.60 555.92
  Q 487.54 606.56 513.71 649.51
  Q 517.48 655.70 521.45 662.17
  C 523.95 666.24 527.62 668.51 531.98 665.87
  C 534.09 664.59 535.38 661.83 536.63 659.68
  C 543.27 648.22 553.67 637.90 564.76 629.84
  A 0.44 0.44 0.0 0 1 565.46 630.19
  Q 565.53 638.17 565.60 646.51
  C 565.65 652.34 567.15 657.43 572.71 659.85
  Q 575.89 661.23 582.89 661.06
  Q 590.03 660.89 596.98 660.99
  Q 597.53 661.00 597.53 661.55
  L 597.50 811.53
  Q 597.50 812.30 596.72 812.30
  Z
  M 125.06 113.29
  C 131.81 116.68 133.07 125.66 133.50 132.66
  Q 133.70 136.05 137.09 136.24
  Q 137.54 136.27 137.97 136.14
  Q 140.45 135.38 140.62 132.78
  C 141.25 122.70 142.90 114.12 154.20 111.62
  Q 158.90 110.58 163.74 110.34
  Q 166.95 110.19 167.56 107.03
  Q 167.65 106.59 167.56 106.16
  Q 167.06 103.53 164.38 103.33
  Q 160.55 103.04 155.96 102.36
  C 143.24 100.49 141.27 91.13 140.03 80.31
  C 139.46 75.33 133.54 76.03 133.29 79.86
  Q 132.95 84.96 131.50 90.40
  C 128.58 101.36 119.94 102.38 110.27 103.14
  C 105.35 103.52 105.64 110.45 110.97 110.49
  C 115.83 110.52 120.84 111.17 125.06 113.29
  Z
  M 1095.45 242.55
  Q 1095.49 243.21 1094.86 243.00
  C 1079.34 237.75 1062.97 241.84 1053.49 255.09
  C 1047.54 263.43 1046.04 271.95 1046.93 281.91
  Q 1046.99 282.52 1046.37 282.53
  Q 1038.46 282.57 1030.45 282.44
  C 1020.42 282.29 1019.73 296.84 1030.00 296.88
  C 1101.49 297.16 1212.65 297.15 1344.45 296.85
  C 1348.66 296.84 1352.17 295.66 1352.79 291.05
  C 1353.85 283.06 1347.64 282.14 1341.37 282.32
  Q 1334.13 282.52 1326.12 282.30
  Q 1325.49 282.29 1325.64 281.67
  Q 1331.36 258.28 1320.51 237.02
  C 1312.12 220.55 1296.30 208.76 1278.32 205.30
  Q 1264.96 202.72 1253.01 206.55
  A 0.58 0.57 -17.9 0 1 1252.30 206.19
  Q 1244.45 182.97 1224.01 168.32
  C 1206.74 155.94 1186.22 151.56 1164.86 154.63
  C 1122.60 160.69 1092.32 200.24 1095.45 242.55
  Z
  M 954.7954 223.8030
  A 6.98 6.98 0.0 0 0 954.4854 213.9367
  L 954.3104 213.7724
  A 6.98 6.98 0.0 0 0 944.4441 214.0824
  L 902.6046 258.6370
  A 6.98 6.98 0.0 0 0 902.9146 268.5033
  L 903.0896 268.6676
  A 6.98 6.98 0.0 0 0 912.9559 268.3576
  L 954.7954 223.8030
  Z
  M 453.2758 232.0581
  A 6.98 6.98 0.0 0 0 452.9657 222.1918
  L 452.7179 221.9590
  A 6.98 6.98 0.0 0 0 442.8515 222.2691
  L 419.3442 247.3019
  A 6.98 6.98 0.0 0 0 419.6543 257.1682
  L 419.9021 257.4010
  A 6.98 6.98 0.0 0 0 429.7685 257.0909
  L 453.2758 232.0581
  Z
  M 1166.95 388.78
  Q 1174.80 366.89 1163.97 347.50
  C 1148.86 320.44 1113.43 315.81 1090.52 335.36
  A 0.72 0.71 44.6 0 1 1089.59 335.36
  Q 1076.43 324.36 1061.13 323.06
  C 1031.17 320.53 1007.49 343.83 1009.03 373.75
  Q 1009.43 381.52 1012.80 389.12
  A 0.43 0.43 0.0 0 1 1012.39 389.72
  Q 1002.07 389.40 992.67 389.57
  Q 988.25 389.64 986.26 393.57
  C 984.39 397.29 986.04 402.29 990.24 403.45
  Q 992.35 404.04 994.72 404.03
  Q 1089.19 403.97 1188.95 404.02
  Q 1191.89 404.02 1194.14 402.66
  C 1197.83 400.44 1198.54 395.39 1195.80 392.11
  Q 1193.64 389.52 1189.78 389.51
  Q 1178.75 389.51 1167.48 389.52
  Q 1166.69 389.52 1166.95 388.78
  Z
  M 315.68 407.74
  Q 337.38 419.10 342.06 444.77
  Q 342.30 446.10 343.58 446.52
  C 346.51 447.49 347.45 445.93 347.84 443.36
  C 350.52 425.91 361.71 412.70 377.75 405.91
  Q 383.25 403.58 388.84 402.80
  C 391.70 402.41 392.92 398.76 390.56 397.16
  Q 389.80 396.64 387.75 396.41
  C 366.59 394.01 350.67 376.94 347.13 356.38
  C 346.70 353.91 343.41 352.94 341.90 354.90
  Q 341.42 355.53 341.18 357.30
  C 338.38 378.12 321.07 394.22 300.62 396.86
  C 296.55 397.38 296.38 402.71 300.63 403.18
  Q 308.66 404.07 315.68 407.74
  Z
  M 48.62 509.58
  Q 38.71 509.68 29.13 509.47
  Q 24.77 509.38 22.49 510.50
  C 17.35 513.01 17.37 521.36 22.77 523.56
  Q 24.24 524.17 27.10 524.17
  Q 125.99 524.38 222.87 524.18
  Q 226.87 524.18 229.26 521.57
  C 232.16 518.39 231.48 513.31 227.82 510.89
  Q 225.97 509.67 222.90 509.67
  Q 211.77 509.66 202.01 509.67
  Q 201.01 509.67 201.32 508.71
  Q 208.41 486.87 197.63 468.20
  C 192.33 459.00 183.45 451.46 173.61 447.72
  C 156.78 441.33 139.54 444.31 125.65 456.28
  Q 125.20 456.67 124.75 456.29
  C 122.79 454.67 120.92 453.01 118.76 451.64
  C 104.35 442.47 86.39 442.10 71.31 450.40
  C 53.21 460.37 43.29 480.63 47.14 501.35
  C 47.60 503.85 48.51 506.34 49.20 508.81
  Q 49.41 509.57 48.62 509.58
  Z
  M 1261.42 518.86
  Q 1283.37 528.72 1288.85 551.27
  C 1289.33 553.22 1289.37 555.23 1289.81 557.17
  Q 1289.96 557.83 1290.56 558.14
  C 1292.56 559.15 1295.25 558.66 1295.53 556.02
  C 1297.84 534.44 1316.36 518.24 1337.57 515.03
  Q 1339.26 514.78 1339.66 513.10
  C 1340.88 508.02 1334.24 508.90 1331.35 508.12
  C 1313.47 503.32 1297.86 488.43 1295.72 469.31
  C 1295.30 465.48 1289.93 464.96 1289.49 469.00
  Q 1288.02 482.26 1277.99 493.26
  Q 1266.02 506.40 1247.96 508.80
  C 1244.15 509.31 1244.16 514.97 1248.30 515.37
  Q 1255.15 516.04 1261.42 518.86
  Z
  M 328.1474 557.7921
  A 7.14 7.14 0.0 0 0 327.8831 547.6981
  L 327.7670 547.5880
  A 7.14 7.14 0.0 0 0 317.6730 547.8523
  L 244.8726 624.5679
  A 7.14 7.14 0.0 0 0 245.1369 634.6619
  L 245.2530 634.7720
  A 7.14 7.14 0.0 0 0 255.3470 634.5077
  L 328.1474 557.7921
  Z
  M 1404.20 674.66
  A 6.98 6.98 0.0 0 0 1397.22 667.68
  L 1306.74 667.68
  A 6.98 6.98 0.0 0 0 1299.76 674.66
  L 1299.76 675.14
  A 6.98 6.98 0.0 0 0 1306.74 682.12
  L 1397.22 682.12
  A 6.98 6.98 0.0 0 0 1404.20 675.14
  L 1404.20 674.66
  Z
  M 118.2197 674.7348
  A 7.12 7.12 0.0 0 0 111.0873 667.6272
  L 16.1874 667.7928
  A 7.12 7.12 0.0 0 0 9.0799 674.9252
  L 9.0803 675.1652
  A 7.12 7.12 0.0 0 0 16.2127 682.2728
  L 111.1126 682.1072
  A 7.12 7.12 0.0 0 0 118.2201 674.9748
  L 118.2197 674.7348
  Z
  M 75.2996 722.5122
  A 7.00 7.00 0.0 0 0 68.2874 715.5244
  L 16.0275 715.6156
  A 7.00 7.00 0.0 0 0 9.0397 722.6278
  L 9.0404 723.0078
  A 7.00 7.00 0.0 0 0 16.0526 729.9956
  L 68.3125 729.9044
  A 7.00 7.00 0.0 0 0 75.3003 722.8922
  L 75.2996 722.5122
  Z
  M 1401.8804 722.4619
  A 6.91 6.91 0.0 0 0 1394.9825 715.5398
  L 1337.9026 715.4402
  A 6.91 6.91 0.0 0 0 1330.9805 722.3381
  L 1330.9796 722.8781
  A 6.91 6.91 0.0 0 0 1337.8775 729.8002
  L 1394.9574 729.8998
  A 6.91 6.91 0.0 0 0 1401.8795 723.0019
  L 1401.8804 722.4619
  Z
  M 1404.2596 767.8966
  A 7.02 7.02 0.0 0 0 1397.2274 760.8889
  L 1315.7275 761.0311
  A 7.02 7.02 0.0 0 0 1308.7198 768.0634
  L 1308.7204 768.4034
  A 7.02 7.02 0.0 0 0 1315.7526 775.4111
  L 1397.2525 775.2689
  A 7.02 7.02 0.0 0 0 1404.2602 768.2366
  L 1404.2596 767.8966
  Z"
/>
<path fill="#3c3d3e" d="
  M 597.50 811.53
  L 597.53 661.55
  Q 597.53 661.00 596.98 660.99
  Q 590.03 660.89 582.89 661.06
  Q 575.89 661.23 572.71 659.85
  C 567.15 657.43 565.65 652.34 565.60 646.51
  Q 565.53 638.17 565.46 630.19
  A 0.44 0.44 0.0 0 0 564.76 629.84
  C 553.67 637.90 543.27 648.22 536.63 659.68
  C 535.38 661.83 534.09 664.59 531.98 665.87
  C 527.62 668.51 523.95 666.24 521.45 662.17
  Q 517.48 655.70 513.71 649.51
  Q 487.54 606.56 490.60 555.92
  C 492.43 525.60 504.10 495.04 521.29 470.89
  C 533.25 454.10 547.93 440.45 564.99 429.22
  Q 565.55 428.85 565.55 428.18
  Q 565.50 416.09 565.60 356.21
  Q 565.69 303.44 574.82 249.70
  Q 580.20 218.01 586.41 196.79
  Q 589.22 187.18 592.19 177.69
  Q 610.04 120.51 643.09 69.27
  Q 655.29 50.37 670.61 33.83
  C 674.24 29.92 679.64 30.42 683.09 34.33
  C 694.66 47.46 705.31 61.40 714.41 76.40
  Q 737.63 114.72 752.47 154.36
  Q 757.60 168.08 763.25 186.57
  C 780.13 241.89 787.45 301.05 788.11 359.46
  Q 788.47 391.93 788.15 428.33
  A 1.31 1.30 -74.6 0 0 788.78 429.45
  Q 801.44 437.11 813.35 448.57
  Q 814.17 449.35 815.08 448.68
  C 848.87 423.60 892.27 416.79 933.18 426.88
  C 968.10 435.49 997.20 458.31 1015.35 489.22
  C 1018.64 494.83 1021.15 501.01 1023.67 507.07
  A 1.44 1.44 0.0 0 0 1025.07 507.95
  Q 1067.14 505.81 1099.18 530.85
  C 1127.62 553.08 1145.29 589.48 1144.69 625.68
  Q 1144.69 626.24 1145.18 626.52
  Q 1169.37 640.15 1184.11 659.90
  C 1205.51 688.56 1214.59 726.70 1205.63 761.89
  A 3.50 3.50 0.0 0 0 1205.81 764.13
  C 1212.42 779.47 1214.76 794.50 1211.20 811.28
  Q 1210.99 812.27 1212.01 812.27
  Q 1268.90 812.25 1323.15 812.25
  C 1327.77 812.25 1331.12 815.76 1330.47 820.41
  Q 1329.59 826.70 1321.75 826.69
  Q 1156.77 826.62 994.75 826.73
  Q 963.50 826.75 932.25 826.78
  Q 848.95 826.85 753.15 826.57
  A 0.97 0.96 -76.4 0 0 752.29 827.10
  Q 746.06 839.66 735.13 852.51
  C 730.54 857.90 725.08 858.13 720.47 852.65
  Q 712.91 843.65 707.13 835.55
  Q 706.49 834.65 706.53 835.76
  C 706.95 847.39 706.70 857.82 700.58 868.17
  Q 693.68 879.84 683.53 889.11
  C 677.75 894.39 672.05 892.80 667.17 887.93
  C 656.08 876.90 645.86 862.94 645.56 846.76
  Q 645.45 840.83 645.45 834.10
  Q 645.45 832.41 644.45 833.78
  Q 637.80 842.90 630.71 851.37
  Q 628.93 853.51 626.51 855.18
  C 622.99 857.62 618.36 857.20 615.63 853.80
  Q 605.35 841.01 598.83 827.25
  Q 598.55 826.67 597.91 826.67
  Q 353.95 826.74 107.80 826.70
  C 97.71 826.70 97.88 812.28 107.59 812.28
  Q 157.69 812.30 209.19 812.25
  A 0.49 0.49 0.0 0 0 209.67 811.64
  C 202.01 779.35 217.83 743.52 249.64 731.40
  C 269.62 723.79 291.56 727.16 308.56 740.21
  Q 309.03 740.57 309.32 740.06
  C 324.67 713.06 352.22 694.10 383.64 693.42
  Q 384.33 693.40 384.42 692.72
  Q 385.23 686.34 386.79 680.39
  Q 400.48 628.28 444.95 598.40
  Q 458.68 589.18 474.76 584.53
  C 476.78 583.95 479.33 583.16 481.36 583.92
  Q 485.06 585.30 485.26 589.62
  Q 485.52 595.41 479.85 597.47
  Q 471.99 600.32 464.94 603.63
  C 430.89 619.57 404.57 655.64 399.12 692.80
  A 0.67 0.66 -83.5 0 0 399.72 693.56
  Q 432.60 696.43 455.98 719.55
  Q 470.79 734.18 477.48 752.98
  A 0.43 0.42 -26.4 0 0 478.12 753.19
  Q 493.54 742.86 511.81 743.83
  C 546.16 745.66 569.98 777.78 564.52 811.42
  Q 564.38 812.27 565.25 812.27
  L 596.72 812.30
  Q 597.50 812.30 597.50 811.53
  Z
  M 651.20 83.73
  C 626.05 124.25 608.06 168.29 596.97 214.44
  Q 587.94 252.04 584.32 288.02
  Q 580.36 327.26 580.33 370.13
  Q 580.22 506.61 580.35 645.69
  A 0.92 0.91 -90.0 0 0 581.26 646.61
  L 773.00 646.50
  Q 773.45 646.50 773.45 645.98
  Q 773.54 508.80 773.39 371.83
  Q 773.34 328.26 769.37 291.29
  C 764.24 243.43 753.15 196.15 735.35 150.97
  Q 716.67 103.54 686.76 61.50
  C 683.83 57.39 680.44 53.51 677.17 49.58
  A 0.70 0.70 0.0 0 0 676.21 49.47
  Q 675.91 49.69 675.67 49.98
  Q 661.95 66.41 651.20 83.73
  Z
  M 1019.25 522.68
  C 1013.17 522.92 1011.80 518.16 1010.38 513.32
  Q 1008.62 507.31 1005.46 501.22
  Q 989.34 470.19 958.96 452.60
  C 945.42 444.76 929.79 440.11 914.60 437.96
  Q 882.14 433.37 851.11 445.11
  C 841.87 448.61 832.76 454.03 824.56 459.84
  A 0.79 0.79 0.0 0 0 824.43 461.02
  Q 830.03 467.09 834.62 474.05
  C 857.30 508.47 867.48 550.26 861.17 591.39
  Q 861.08 591.97 861.48 591.54
  Q 862.81 590.09 864.47 588.93
  C 877.65 579.72 891.81 572.79 907.35 569.36
  Q 937.35 562.73 966.41 569.82
  C 1007.96 579.96 1043.01 611.76 1052.43 654.05
  C 1054.61 663.85 1040.64 666.50 1038.68 657.94
  C 1030.30 621.43 1001.26 594.15 965.55 584.49
  C 934.10 575.98 898.41 581.15 872.22 601.05
  C 869.63 603.02 866.83 603.58 863.75 602.28
  C 861.77 601.44 861.09 599.51 860.67 597.58
  Q 860.25 595.66 859.88 597.59
  C 858.50 604.74 857.00 611.70 854.54 618.59
  Q 848.52 635.42 838.99 650.60
  Q 835.00 656.98 830.42 663.62
  C 827.66 667.61 821.67 667.88 819.23 663.44
  Q 811.46 649.31 801.01 639.50
  C 797.25 635.98 793.10 633.24 789.18 629.98
  A 0.41 0.41 0.0 0 0 788.51 630.28
  Q 788.19 639.30 788.38 647.78
  C 788.50 652.82 786.57 656.79 782.25 659.29
  Q 779.36 660.95 773.25 660.97
  Q 763.92 660.99 755.21 661.05
  A 0.62 0.62 0.0 0 0 754.59 661.67
  L 754.69 811.60
  A 0.67 0.66 90.0 0 0 755.35 812.27
  L 900.80 812.28
  A 0.39 0.39 0.0 0 0 901.18 811.82
  C 898.03 796.78 898.68 780.33 903.08 765.77
  C 916.94 719.87 956.29 684.77 1005.67 684.80
  C 1040.69 684.82 1071.31 700.67 1090.63 729.86
  Q 1090.93 730.31 1091.38 730.01
  C 1124.56 708.06 1166.90 714.13 1193.58 744.12
  Q 1194.40 745.04 1194.46 743.81
  Q 1197.25 689.03 1158.34 653.33
  Q 1147.55 643.42 1133.64 637.66
  C 1130.97 636.56 1129.38 634.18 1129.64 631.21
  C 1134.72 573.53 1087.43 519.62 1028.58 522.28
  Q 1023.90 522.49 1019.25 522.68
  Z
  M 845.22 535.92
  C 837.78 500.14 817.78 468.94 788.55 446.65
  A 0.21 0.20 18.8 0 0 788.22 446.81
  L 788.26 611.79
  A 2.09 2.08 13.5 0 0 789.41 613.65
  C 803.40 620.70 815.34 631.33 824.46 644.23
  A 0.71 0.71 0.0 0 0 825.63 644.21
  Q 835.33 629.53 841.24 611.88
  Q 853.45 575.44 845.22 535.92
  Z
  M 519.17 503.49
  Q 500.72 542.89 505.88 583.95
  Q 509.99 616.65 528.13 644.79
  Q 528.85 645.91 529.54 644.77
  Q 532.10 640.55 535.67 636.45
  Q 548.28 622.00 565.11 613.69
  A 0.80 0.79 -13.3 0 0 565.55 612.98
  L 565.51 447.49
  Q 565.51 446.53 564.76 447.13
  C 556.82 453.50 549.14 459.99 542.34 467.66
  Q 528.76 482.99 519.17 503.49
  Z
  M 687.98 861.22
  C 691.28 856.03 692.03 851.40 692.04 845.31
  Q 692.06 754.26 691.95 662.00
  A 1.24 1.24 0.0 0 0 690.70 660.76
  L 660.83 660.87
  Q 660.55 660.87 660.55 661.15
  Q 660.17 754.39 660.52 846.93
  C 660.57 858.02 667.96 866.76 675.06 875.02
  Q 675.92 876.03 676.86 875.09
  Q 683.11 868.87 687.98 861.22
  Z
  M 737.57 824.68
  C 740.32 819.76 740.17 814.34 740.16 808.94
  Q 739.99 736.43 740.03 661.64
  A 0.79 0.78 0.4 0 0 739.24 660.85
  L 706.88 660.82
  Q 706.53 660.82 706.53 661.18
  L 706.51 809.65
  A 4.00 3.99 26.5 0 0 707.32 812.06
  L 727.00 837.93
  A 0.70 0.70 0.0 0 0 728.08 837.97
  Q 733.83 831.35 737.57 824.68
  Z
  M 614.57 826.70
  Q 618.19 833.02 621.89 838.07
  A 0.64 0.64 0.0 0 0 622.91 838.09
  L 645.07 810.36
  A 1.86 1.84 -25.8 0 0 645.48 809.20
  L 645.41 661.41
  A 0.51 0.50 90.0 0 0 644.91 660.90
  L 612.99 660.98
  A 0.71 0.71 0.0 0 0 612.28 661.69
  Q 612.32 738.60 612.28 809.92
  C 612.28 815.40 611.74 821.75 614.57 826.70
  Z
  M 1194.14 773.03
  C 1185.20 751.03 1165.74 734.12 1141.80 731.71
  Q 1113.26 728.83 1092.28 746.90
  C 1088.13 750.46 1084.62 750.28 1082.28 745.03
  C 1072.31 722.69 1050.88 707.78 1027.49 701.66
  Q 1018.59 699.33 1006.83 699.17
  C 975.36 698.73 948.11 714.93 930.55 740.75
  C 916.22 761.82 910.27 786.93 915.70 811.62
  Q 915.84 812.25 916.48 812.25
  L 1195.46 812.34
  Q 1196.23 812.34 1196.40 811.60
  Q 1201.33 790.72 1194.14 773.03
  Z
  M 243.44 751.05
  C 224.56 765.31 217.75 789.27 224.64 811.66
  Q 224.83 812.28 225.48 812.28
  L 549.31 812.27
  Q 550.00 812.27 550.10 811.59
  C 551.94 799.57 550.88 788.51 544.18 777.95
  C 534.58 762.82 516.23 754.28 498.59 759.37
  Q 483.91 763.60 476.69 776.46
  C 475.37 778.81 472.93 779.77 470.38 778.54
  Q 468.69 777.72 468.39 775.86
  Q 467.14 768.06 464.63 759.90
  C 456.76 734.29 434.56 715.48 408.81 709.47
  C 379.45 702.62 350.16 711.59 330.58 734.56
  Q 321.30 745.45 317.29 760.29
  Q 316.72 762.38 315.48 763.46
  C 313.44 765.23 310.16 764.29 308.76 762.00
  C 295.04 739.47 263.94 735.57 243.44 751.05
  Z"
/>
<path fill="none" d="
  M 596.97 214.44
  C 608.06 168.29 626.05 124.25 651.20 83.73
  Q 661.95 66.41 675.67 49.98
  Q 675.91 49.69 676.21 49.47
  A 0.70 0.70 0.0 0 1 677.17 49.58
  C 680.44 53.51 683.83 57.39 686.76 61.50
  Q 716.67 103.54 735.35 150.97
  C 753.15 196.15 764.24 243.43 769.37 291.29
  Q 773.34 328.26 773.39 371.83
  Q 773.54 508.80 773.45 645.98
  Q 773.45 646.50 773.00 646.50
  L 581.26 646.61
  A 0.92 0.91 90.0 0 1 580.35 645.69
  Q 580.22 506.61 580.33 370.13
  Q 580.36 327.26 584.32 288.02
  Q 587.94 252.04 596.97 214.44
  Z
  M 708.6521 194.7512
  A 31.33 30.94 -9.7 0 0 672.5569 169.5323
  A 31.33 30.94 -9.7 0 0 646.8879 205.3088
  A 31.33 30.94 -9.7 0 0 682.9831 230.5277
  A 31.33 30.94 -9.7 0 0 708.6521 194.7512
  Z
  M 726.7863 295.4716
  A 49.56 49.06 -5.8 0 0 672.5222 251.6712
  A 49.56 49.06 -5.8 0 0 628.1737 305.4884
  A 49.56 49.06 -5.8 0 0 682.4378 349.2888
  A 49.56 49.06 -5.8 0 0 726.7863 295.4716
  Z
  M 661.2093 587.6530
  A 4.86 4.86 0.0 0 0 656.3324 582.8100
  L 633.3925 582.8901
  A 4.86 4.86 0.0 0 0 628.5495 587.7670
  L 628.5507 588.1070
  A 4.86 4.86 0.0 0 0 633.4276 592.9500
  L 656.3675 592.8699
  A 4.86 4.86 0.0 0 0 661.2105 587.9930
  L 661.2093 587.6530
  Z
  M 727.2003 587.8773
  A 4.90 4.90 0.0 0 0 722.3088 582.9688
  L 700.7889 582.9312
  A 4.90 4.90 0.0 0 0 695.8803 587.8227
  L 695.8797 588.1827
  A 4.90 4.90 0.0 0 0 700.7712 593.0912
  L 722.2911 593.1288
  A 4.90 4.90 0.0 0 0 727.1997 588.2373
  L 727.2003 587.8773
  Z"
/>
<path fill="#3c3d3e" d="
  M 125.06 113.29
  C 120.84 111.17 115.83 110.52 110.97 110.49
  C 105.64 110.45 105.35 103.52 110.27 103.14
  C 119.94 102.38 128.58 101.36 131.50 90.40
  Q 132.95 84.96 133.29 79.86
  C 133.54 76.03 139.46 75.33 140.03 80.31
  C 141.27 91.13 143.24 100.49 155.96 102.36
  Q 160.55 103.04 164.38 103.33
  Q 167.06 103.53 167.56 106.16
  Q 167.65 106.59 167.56 107.03
  Q 166.95 110.19 163.74 110.34
  Q 158.90 110.58 154.20 111.62
  C 142.90 114.12 141.25 122.70 140.62 132.78
  Q 140.45 135.38 137.97 136.14
  Q 137.54 136.27 137.09 136.24
  Q 133.70 136.05 133.50 132.66
  C 133.07 125.66 131.81 116.68 125.06 113.29
  Z
  M 137.02 102.03
  A 0.32 0.32 0.0 0 0 136.53 102.04
  L 132.83 106.58
  A 0.32 0.32 0.0 0 0 132.84 106.99
  L 136.50 111.06
  A 0.32 0.32 0.0 0 0 136.92 111.10
  L 141.64 107.76
  A 0.32 0.32 0.0 0 0 141.69 107.28
  L 137.02 102.03
  Z"
/>
<path fill="none" d="
  M 137.02 102.03
  L 141.69 107.28
  A 0.32 0.32 0.0 0 1 141.64 107.76
  L 136.92 111.10
  A 0.32 0.32 0.0 0 1 136.50 111.06
  L 132.84 106.99
  A 0.32 0.32 0.0 0 1 132.83 106.58
  L 136.53 102.04
  A 0.32 0.32 0.0 0 1 137.02 102.03
  Z"
/>
<path fill="#3c3d3e" d="
  M 1095.45 242.55
  C 1092.32 200.24 1122.60 160.69 1164.86 154.63
  C 1186.22 151.56 1206.74 155.94 1224.01 168.32
  Q 1244.45 182.97 1252.30 206.19
  A 0.58 0.57 -17.9 0 0 1253.01 206.55
  Q 1264.96 202.72 1278.32 205.30
  C 1296.30 208.76 1312.12 220.55 1320.51 237.02
  Q 1331.36 258.28 1325.64 281.67
  Q 1325.49 282.29 1326.12 282.30
  Q 1334.13 282.52 1341.37 282.32
  C 1347.64 282.14 1353.85 283.06 1352.79 291.05
  C 1352.17 295.66 1348.66 296.84 1344.45 296.85
  C 1212.65 297.15 1101.49 297.16 1030.00 296.88
  C 1019.73 296.84 1020.42 282.29 1030.45 282.44
  Q 1038.46 282.57 1046.37 282.53
  Q 1046.99 282.52 1046.93 281.91
  C 1046.04 271.95 1047.54 263.43 1053.49 255.09
  C 1062.97 241.84 1079.34 237.75 1094.86 243.00
  Q 1095.49 243.21 1095.45 242.55
  Z
  M 1305.81 240.31
  C 1293.47 220.90 1268.93 212.22 1248.77 224.53
  C 1245.40 226.58 1241.85 225.29 1241.27 221.28
  Q 1237.88 197.96 1218.96 182.39
  C 1202.25 168.64 1179.53 164.75 1158.99 170.67
  C 1119.22 182.14 1098.40 226.84 1115.91 264.73
  Q 1119.65 272.82 1128.28 281.67
  C 1129.05 282.46 1130.00 282.45 1131.01 282.45
  Q 1216.98 282.55 1305.44 282.47
  Q 1307.83 282.47 1310.24 282.08
  Q 1310.77 282.00 1310.92 281.49
  Q 1317.50 258.71 1305.81 240.31
  Z
  M 1108.86 281.79
  C 1103.65 274.40 1099.61 265.45 1097.06 256.57
  C 1096.80 255.68 1096.23 254.97 1095.38 254.58
  C 1080.83 247.93 1064.74 253.42 1058.66 268.62
  C 1056.99 272.81 1057.06 277.56 1057.26 281.97
  Q 1057.28 282.49 1057.81 282.49
  L 1108.51 282.47
  A 0.43 0.43 0.0 0 0 1108.86 281.79
  Z"
/>
<path fill="none" d="
  M 1248.77 224.53
  C 1268.93 212.22 1293.47 220.90 1305.81 240.31
  Q 1317.50 258.71 1310.92 281.49
  Q 1310.77 282.00 1310.24 282.08
  Q 1307.83 282.47 1305.44 282.47
  Q 1216.98 282.55 1131.01 282.45
  C 1130.00 282.45 1129.05 282.46 1128.28 281.67
  Q 1119.65 272.82 1115.91 264.73
  C 1098.40 226.84 1119.22 182.14 1158.99 170.67
  C 1179.53 164.75 1202.25 168.64 1218.96 182.39
  Q 1237.88 197.96 1241.27 221.28
  C 1241.85 225.29 1245.40 226.58 1248.77 224.53
  Z"
/>
<path fill="#3c3d3e" d="
  M 708.6521 194.7512
  A 31.33 30.94 -9.7 0 1 682.9831 230.5277
  A 31.33 30.94 -9.7 0 1 646.8879 205.3088
  A 31.33 30.94 -9.7 0 1 672.5569 169.5323
  A 31.33 30.94 -9.7 0 1 708.6521 194.7512
  Z
  M 694.2655 199.2874
  A 16.54 16.23 -2.4 0 0 677.0604 183.7642
  A 16.54 16.23 -2.4 0 0 661.2145 200.6726
  A 16.54 16.23 -2.4 0 0 678.4196 216.1958
  A 16.54 16.23 -2.4 0 0 694.2655 199.2874
  Z"
/>
<ellipse fill="none" cx="0.00" cy="0.00" transform="translate(677.74,199.98) rotate(-2.4)" rx="16.54" ry="16.23"/>
<rect fill="#3c3d3e" x="-7.10" y="-37.54" transform="translate(928.70,241.22) rotate(43.2)" width="14.20" height="75.08" rx="6.98"/>
<rect fill="#3c3d3e" x="-7.15" y="-24.15" transform="translate(436.31,239.68) rotate(43.2)" width="14.30" height="48.30" rx="6.98"/>
<path fill="#3c3d3e" d="
  M 726.7863 295.4716
  A 49.56 49.06 -5.8 0 1 682.4378 349.2888
  A 49.56 49.06 -5.8 0 1 628.1737 305.4884
  A 49.56 49.06 -5.8 0 1 672.5222 251.6712
  A 49.56 49.06 -5.8 0 1 726.7863 295.4716
  Z
  M 712.3656 302.3687
  A 34.91 34.41 3.2 0 0 679.4308 266.0637
  A 34.91 34.41 3.2 0 0 642.6544 298.4713
  A 34.91 34.41 3.2 0 0 675.5892 334.7763
  A 34.91 34.41 3.2 0 0 712.3656 302.3687
  Z"
/>
<path fill="none" d="
  M 1097.06 256.57
  C 1099.61 265.45 1103.65 274.40 1108.86 281.79
  A 0.43 0.43 0.0 0 1 1108.51 282.47
  L 1057.81 282.49
  Q 1057.28 282.49 1057.26 281.97
  C 1057.06 277.56 1056.99 272.81 1058.66 268.62
  C 1064.74 253.42 1080.83 247.93 1095.38 254.58
  C 1096.23 254.97 1096.80 255.68 1097.06 256.57
  Z"
/>
<ellipse fill="none" cx="0.00" cy="0.00" transform="translate(677.51,300.42) rotate(3.2)" rx="34.91" ry="34.41"/>
<path fill="#3c3d3e" d="
  M 1167.48 389.52
  Q 1178.75 389.51 1189.78 389.51
  Q 1193.64 389.52 1195.80 392.11
  C 1198.54 395.39 1197.83 400.44 1194.14 402.66
  Q 1191.89 404.02 1188.95 404.02
  Q 1089.19 403.97 994.72 404.03
  Q 992.35 404.04 990.24 403.45
  C 986.04 402.29 984.39 397.29 986.26 393.57
  Q 988.25 389.64 992.67 389.57
  Q 1002.07 389.40 1012.39 389.72
  A 0.43 0.43 0.0 0 0 1012.80 389.12
  Q 1009.43 381.52 1009.03 373.75
  C 1007.49 343.83 1031.17 320.53 1061.13 323.06
  Q 1076.43 324.36 1089.59 335.36
  A 0.72 0.71 44.6 0 0 1090.52 335.36
  C 1113.43 315.81 1148.86 320.44 1163.97 347.50
  Q 1174.80 366.89 1166.95 388.78
  Q 1166.69 389.52 1167.48 389.52
  Z
  M 1094.15 352.47
  C 1091.66 355.87 1087.39 355.29 1084.98 351.98
  C 1071.98 334.17 1046.99 331.76 1031.80 347.84
  C 1020.97 359.30 1020.52 375.95 1029.16 388.84
  Q 1029.40 389.20 1029.82 389.28
  Q 1031.94 389.69 1034.24 389.69
  Q 1092.18 389.74 1150.38 389.66
  A 0.67 0.67 0.0 0 0 1150.97 389.31
  Q 1158.12 376.53 1154.96 363.43
  Q 1152.62 353.71 1145.25 346.75
  C 1129.95 332.29 1106.44 335.60 1094.15 352.47
  Z"
/>
<path fill="none" d="
  M 1084.98 351.98
  C 1087.39 355.29 1091.66 355.87 1094.15 352.47
  C 1106.44 335.60 1129.95 332.29 1145.25 346.75
  Q 1152.62 353.71 1154.96 363.43
  Q 1158.12 376.53 1150.97 389.31
  A 0.67 0.67 0.0 0 1 1150.38 389.66
  Q 1092.18 389.74 1034.24 389.69
  Q 1031.94 389.69 1029.82 389.28
  Q 1029.40 389.20 1029.16 388.84
  C 1020.52 375.95 1020.97 359.30 1031.80 347.84
  C 1046.99 331.76 1071.98 334.17 1084.98 351.98
  Z"
/>
<path fill="#3c3d3e" d="
  M 315.68 407.74
  Q 308.66 404.07 300.63 403.18
  C 296.38 402.71 296.55 397.38 300.62 396.86
  C 321.07 394.22 338.38 378.12 341.18 357.30
  Q 341.42 355.53 341.90 354.90
  C 343.41 352.94 346.70 353.91 347.13 356.38
  C 350.67 376.94 366.59 394.01 387.75 396.41
  Q 389.80 396.64 390.56 397.16
  C 392.92 398.76 391.70 402.41 388.84 402.80
  Q 383.25 403.58 377.75 405.91
  C 361.71 412.70 350.52 425.91 347.84 443.36
  C 347.45 445.93 346.51 447.49 343.58 446.52
  Q 342.30 446.10 342.06 444.77
  Q 337.38 419.10 315.68 407.74
  Z
  M 344.03 380.17
  Q 336.81 392.68 324.76 400.18
  A 0.39 0.39 0.0 0 0 324.77 400.85
  Q 336.83 407.85 344.11 420.00
  A 0.46 0.45 45.4 0 0 344.89 420.01
  Q 350.95 410.17 360.44 402.93
  Q 362.29 401.52 364.45 400.58
  A 0.42 0.42 0.0 0 0 364.49 399.83
  Q 352.21 392.60 344.81 380.17
  A 0.45 0.45 0.0 0 0 344.03 380.17
  Z"
/>
<path fill="none" d="
  M 344.03 380.17
  A 0.45 0.45 0.0 0 1 344.81 380.17
  Q 352.21 392.60 364.49 399.83
  A 0.42 0.42 0.0 0 1 364.45 400.58
  Q 362.29 401.52 360.44 402.93
  Q 350.95 410.17 344.89 420.01
  A 0.46 0.45 45.4 0 1 344.11 420.00
  Q 336.83 407.85 324.77 400.85
  A 0.39 0.39 0.0 0 1 324.76 400.18
  Q 336.81 392.68 344.03 380.17
  Z"
/>
<path fill="none" d="
  M 1010.38 513.32
  C 1011.80 518.16 1013.17 522.92 1019.25 522.68
  Q 1023.90 522.49 1028.58 522.28
  C 1087.43 519.62 1134.72 573.53 1129.64 631.21
  C 1129.38 634.18 1130.97 636.56 1133.64 637.66
  Q 1147.55 643.42 1158.34 653.33
  Q 1197.25 689.03 1194.46 743.81
  Q 1194.40 745.04 1193.58 744.12
  C 1166.90 714.13 1124.56 708.06 1091.38 730.01
  Q 1090.93 730.31 1090.63 729.86
  C 1071.31 700.67 1040.69 684.82 1005.67 684.80
  C 956.29 684.77 916.94 719.87 903.08 765.77
  C 898.68 780.33 898.03 796.78 901.18 811.82
  A 0.39 0.39 0.0 0 1 900.80 812.28
  L 755.35 812.27
  A 0.67 0.66 -90.0 0 1 754.69 811.60
  L 754.59 661.67
  A 0.62 0.62 0.0 0 1 755.21 661.05
  Q 763.92 660.99 773.25 660.97
  Q 779.36 660.95 782.25 659.29
  C 786.57 656.79 788.50 652.82 788.38 647.78
  Q 788.19 639.30 788.51 630.28
  A 0.41 0.41 0.0 0 1 789.18 629.98
  C 793.10 633.24 797.25 635.98 801.01 639.50
  Q 811.46 649.31 819.23 663.44
  C 821.67 667.88 827.66 667.61 830.42 663.62
  Q 835.00 656.98 838.99 650.60
  Q 848.52 635.42 854.54 618.59
  C 857.00 611.70 858.50 604.74 859.88 597.59
  Q 860.25 595.66 860.67 597.58
  C 861.09 599.51 861.77 601.44 863.75 602.28
  C 866.83 603.58 869.63 603.02 872.22 601.05
  C 898.41 581.15 934.10 575.98 965.55 584.49
  C 1001.26 594.15 1030.30 621.43 1038.68 657.94
  C 1040.64 666.50 1054.61 663.85 1052.43 654.05
  C 1043.01 611.76 1007.96 579.96 966.41 569.82
  Q 937.35 562.73 907.35 569.36
  C 891.81 572.79 877.65 579.72 864.47 588.93
  Q 862.81 590.09 861.48 591.54
  Q 861.08 591.97 861.17 591.39
  C 867.48 550.26 857.30 508.47 834.62 474.05
  Q 830.03 467.09 824.43 461.02
  A 0.79 0.79 0.0 0 1 824.56 459.84
  C 832.76 454.03 841.87 448.61 851.11 445.11
  Q 882.14 433.37 914.60 437.96
  C 929.79 440.11 945.42 444.76 958.96 452.60
  Q 989.34 470.19 1005.46 501.22
  Q 1008.62 507.31 1010.38 513.32
  Z"
/>
<path fill="#3c3d3e" d="
  M 49.20 508.81
  C 48.51 506.34 47.60 503.85 47.14 501.35
  C 43.29 480.63 53.21 460.37 71.31 450.40
  C 86.39 442.10 104.35 442.47 118.76 451.64
  C 120.92 453.01 122.79 454.67 124.75 456.29
  Q 125.20 456.67 125.65 456.28
  C 139.54 444.31 156.78 441.33 173.61 447.72
  C 183.45 451.46 192.33 459.00 197.63 468.20
  Q 208.41 486.87 201.32 508.71
  Q 201.01 509.67 202.01 509.67
  Q 211.77 509.66 222.90 509.67
  Q 225.97 509.67 227.82 510.89
  C 231.48 513.31 232.16 518.39 229.26 521.57
  Q 226.87 524.18 222.87 524.18
  Q 125.99 524.38 27.10 524.17
  Q 24.24 524.17 22.77 523.56
  C 17.37 521.36 17.35 513.01 22.49 510.50
  Q 24.77 509.38 29.13 509.47
  Q 38.71 509.68 48.62 509.58
  Q 49.41 509.57 49.20 508.81
  Z
  M 121.69 476.02
  C 120.13 473.93 118.97 471.57 117.24 469.56
  C 101.87 451.66 74.93 456.90 64.43 476.85
  C 59.88 485.49 59.56 494.82 63.08 504.03
  Q 64.10 506.67 65.26 509.32
  A 0.80 0.79 78.1 0 0 65.99 509.80
  L 184.19 509.79
  A 0.92 0.91 14.4 0 0 184.99 509.32
  Q 191.08 498.56 189.37 487.45
  C 187.47 475.08 179.02 464.49 167.19 460.54
  C 153.25 455.89 139.71 460.62 130.92 472.48
  Q 129.60 474.26 128.17 476.11
  C 126.62 478.11 123.18 478.02 121.69 476.02
  Z"
/>
<path fill="none" d="
  M 788.55 446.65
  C 817.78 468.94 837.78 500.14 845.22 535.92
  Q 853.45 575.44 841.24 611.88
  Q 835.33 629.53 825.63 644.21
  A 0.71 0.71 0.0 0 1 824.46 644.23
  C 815.34 631.33 803.40 620.70 789.41 613.65
  A 2.09 2.08 13.5 0 1 788.26 611.79
  L 788.22 446.81
  A 0.21 0.20 18.8 0 1 788.55 446.65
  Z"
/>
<path fill="none" d="
  M 519.17 503.49
  Q 528.76 482.99 542.34 467.66
  C 549.14 459.99 556.82 453.50 564.76 447.13
  Q 565.51 446.53 565.51 447.49
  L 565.55 612.98
  A 0.80 0.79 -13.3 0 1 565.11 613.69
  Q 548.28 622.00 535.67 636.45
  Q 532.10 640.55 529.54 644.77
  Q 528.85 645.91 528.13 644.79
  Q 509.99 616.65 505.88 583.95
  Q 500.72 542.89 519.17 503.49
  Z"
/>
<path fill="none" d="
  M 121.69 476.02
  C 123.18 478.02 126.62 478.11 128.17 476.11
  Q 129.60 474.26 130.92 472.48
  C 139.71 460.62 153.25 455.89 167.19 460.54
  C 179.02 464.49 187.47 475.08 189.37 487.45
  Q 191.08 498.56 184.99 509.32
  A 0.92 0.91 14.4 0 1 184.19 509.79
  L 65.99 509.80
  A 0.80 0.79 78.1 0 1 65.26 509.32
  Q 64.10 506.67 63.08 504.03
  C 59.56 494.82 59.88 485.49 64.43 476.85
  C 74.93 456.90 101.87 451.66 117.24 469.56
  C 118.97 471.57 120.13 473.93 121.69 476.02
  Z"
/>
<path fill="#3c3d3e" d="
  M 1261.42 518.86
  Q 1255.15 516.04 1248.30 515.37
  C 1244.16 514.97 1244.15 509.31 1247.96 508.80
  Q 1266.02 506.40 1277.99 493.26
  Q 1288.02 482.26 1289.49 469.00
  C 1289.93 464.96 1295.30 465.48 1295.72 469.31
  C 1297.86 488.43 1313.47 503.32 1331.35 508.12
  C 1334.24 508.90 1340.88 508.02 1339.66 513.10
  Q 1339.26 514.78 1337.57 515.03
  C 1316.36 518.24 1297.84 534.44 1295.53 556.02
  C 1295.25 558.66 1292.56 559.15 1290.56 558.14
  Q 1289.96 557.83 1289.81 557.17
  C 1289.37 555.23 1289.33 553.22 1288.85 551.27
  Q 1283.37 528.72 1261.42 518.86
  Z
  M 1310.17 513.99
  C 1310.84 513.56 1311.67 513.19 1312.43 512.86
  Q 1313.27 512.48 1312.49 512.00
  Q 1300.62 504.66 1292.98 492.68
  Q 1292.60 492.08 1292.19 492.67
  C 1291.21 494.09 1290.43 495.58 1289.34 496.94
  Q 1282.09 506.06 1272.78 511.85
  A 0.35 0.35 0.0 0 0 1272.80 512.45
  Q 1284.97 519.03 1292.64 531.27
  Q 1292.86 531.61 1293.08 531.27
  Q 1299.72 520.63 1310.17 513.99
  Z"
/>
<path fill="none" d="
  M 1310.17 513.99
  Q 1299.72 520.63 1293.08 531.27
  Q 1292.86 531.61 1292.64 531.27
  Q 1284.97 519.03 1272.80 512.45
  A 0.35 0.35 0.0 0 1 1272.78 511.85
  Q 1282.09 506.06 1289.34 496.94
  C 1290.43 495.58 1291.21 494.09 1292.19 492.67
  Q 1292.60 492.08 1292.98 492.68
  Q 1300.62 504.66 1312.49 512.00
  Q 1313.27 512.48 1312.43 512.86
  C 1311.67 513.19 1310.84 513.56 1310.17 513.99
  Z"
/>
<rect fill="#3c3d3e" x="-7.22" y="-60.02" transform="translate(286.51,591.18) rotate(43.5)" width="14.44" height="120.04" rx="7.14"/>
<rect fill="#3c3d3e" x="-16.33" y="-5.03" transform="translate(644.88,587.88) rotate(-0.2)" width="32.66" height="10.06" rx="4.86"/>
<rect fill="#3c3d3e" x="-15.66" y="-5.08" transform="translate(711.54,588.03) rotate(0.1)" width="31.32" height="10.16" rx="4.90"/>
<path fill="none" d="
  M 687.98 861.22
  Q 683.11 868.87 676.86 875.09
  Q 675.92 876.03 675.06 875.02
  C 667.96 866.76 660.57 858.02 660.52 846.93
  Q 660.17 754.39 660.55 661.15
  Q 660.55 660.87 660.83 660.87
  L 690.70 660.76
  A 1.24 1.24 0.0 0 1 691.95 662.00
  Q 692.06 754.26 692.04 845.31
  C 692.03 851.40 691.28 856.03 687.98 861.22
  Z"
/>
<path fill="none" d="
  M 737.57 824.68
  Q 733.83 831.35 728.08 837.97
  A 0.70 0.70 0.0 0 1 727.00 837.93
  L 707.32 812.06
  A 4.00 3.99 26.5 0 1 706.51 809.65
  L 706.53 661.18
  Q 706.53 660.82 706.88 660.82
  L 739.24 660.85
  A 0.79 0.78 0.4 0 1 740.03 661.64
  Q 739.99 736.43 740.16 808.94
  C 740.17 814.34 740.32 819.76 737.57 824.68
  Z"
/>
<path fill="none" d="
  M 614.57 826.70
  C 611.74 821.75 612.28 815.40 612.28 809.92
  Q 612.32 738.60 612.28 661.69
  A 0.71 0.71 0.0 0 1 612.99 660.98
  L 644.91 660.90
  A 0.51 0.50 90.0 0 1 645.41 661.41
  L 645.48 809.20
  A 1.86 1.84 -25.8 0 1 645.07 810.36
  L 622.91 838.09
  A 0.64 0.64 0.0 0 1 621.89 838.07
  Q 618.19 833.02 614.57 826.70
  Z"
/>
<rect fill="#3c3d3e" x="1299.76" y="667.68" width="104.44" height="14.44" rx="6.98"/>
<rect fill="#3c3d3e" x="-54.57" y="-7.24" transform="translate(63.65,674.95) rotate(-0.1)" width="109.14" height="14.48" rx="7.12"/>
<path fill="none" d="
  M 1141.80 731.71
  C 1165.74 734.12 1185.20 751.03 1194.14 773.03
  Q 1201.33 790.72 1196.40 811.60
  Q 1196.23 812.34 1195.46 812.34
  L 916.48 812.25
  Q 915.84 812.25 915.70 811.62
  C 910.27 786.93 916.22 761.82 930.55 740.75
  C 948.11 714.93 975.36 698.73 1006.83 699.17
  Q 1018.59 699.33 1027.49 701.66
  C 1050.88 707.78 1072.31 722.69 1082.28 745.03
  C 1084.62 750.28 1088.13 750.46 1092.28 746.90
  Q 1113.26 728.83 1141.80 731.71
  Z"
/>
<path fill="none" d="
  M 224.64 811.66
  C 217.75 789.27 224.56 765.31 243.44 751.05
  C 263.94 735.57 295.04 739.47 308.76 762.00
  C 310.16 764.29 313.44 765.23 315.48 763.46
  Q 316.72 762.38 317.29 760.29
  Q 321.30 745.45 330.58 734.56
  C 350.16 711.59 379.45 702.62 408.81 709.47
  C 434.56 715.48 456.76 734.29 464.63 759.90
  Q 467.14 768.06 468.39 775.86
  Q 468.69 777.72 470.38 778.54
  C 472.93 779.77 475.37 778.81 476.69 776.46
  Q 483.91 763.60 498.59 759.37
  C 516.23 754.28 534.58 762.82 544.18 777.95
  C 550.88 788.51 551.94 799.57 550.10 811.59
  Q 550.00 812.27 549.31 812.27
  L 225.48 812.28
  Q 224.83 812.28 224.64 811.66
  Z"
/>
<rect fill="#3c3d3e" x="-33.13" y="-7.19" transform="translate(42.17,722.76) rotate(-0.1)" width="66.26" height="14.38" rx="7.00"/>
<rect fill="#3c3d3e" x="-35.45" y="-7.18" transform="translate(1366.43,722.67) rotate(0.1)" width="70.90" height="14.36" rx="6.91"/>
<rect fill="#3c3d3e" x="-47.77" y="-7.19" transform="translate(1356.49,768.15) rotate(-0.1)" width="95.54" height="14.38" rx="7.02"/>
</svg>
